<?xml version="1.0" encoding="UTF-8"?>
<svg id="Layer_1" data-name="Layer 1" xmlns="http://www.w3.org/2000/svg" xmlns:xlink="http://www.w3.org/1999/xlink" viewBox="0 0 202.58 46.02">
  <defs>
    <style>
      .cls-1 {
        fill: url(#linear-gradient);
      }

      .cls-2 {
        fill: #fff;
      }

      .cls-3 {
        fill: none;
        stroke: #fff;
        stroke-miterlimit: 10;
        stroke-width: .27px;
      }

      .cls-4 {
        fill: #f7a706;
      }
    </style>
    <linearGradient id="linear-gradient" x1="29.64" y1="14.8" x2="44.96" y2="14.8" gradientUnits="userSpaceOnUse">
      <stop offset="0" stop-color="#1dc0e3"/>
      <stop offset="1" stop-color="#2c30c6"/>
    </linearGradient>
  </defs>
  <g>
    <path class="cls-2" d="M60.86,36.18c-3.34,0-6.31-1.74-8.18-3.47l2.67-3.94c1.67,1.74,4.24,2.9,6.01,2.9s3.07-.83,3.07-2.37-1.7-2.17-2.7-2.54c-1-.37-2.74-.97-3.5-1.3-.57-.27-1.74-.7-2.74-1.67-1-.93-1.8-2.27-1.8-4.44s1.07-3.94,2.4-5.04c1.3-1.1,3.4-1.84,6.07-1.84s5.74,1.27,7.31,2.84l-2.3,3.77c-1.34-1.34-3.4-2.34-5.14-2.34s-3,.67-3,2.07,1.3,1.94,2.34,2.34c1,.4,2.7,1,3.44,1.3,2.94,1.07,5.01,2.97,5.01,6.31,0,4.97-4.47,7.41-8.95,7.41Z"/>
    <path class="cls-2" d="M92.74,35.78v-8.94c0-1.77-.33-3.44-2.17-3.44s-2.67,1.67-2.67,3.94v8.44h-5.34v-8.94c0-2.04-.47-3.44-2.2-3.44-1.87,0-2.67,1.67-2.67,3.94v8.44h-5.34v-16.45h5.34l-.03,2.37.07-.03c.83-1.37,2.44-2.64,4.54-2.64,2.27,0,4.07.77,4.91,3,1.17-2,2.8-3,5.24-3,4.21,0,5.71,2.87,5.71,6.84v9.91h-5.37Z"/>
    <path class="cls-2" d="M111.16,35.78l-.1-1.74c-.7.7-2.04,2.1-4.71,2.1-2.9,0-5.97-1.57-5.97-5.24s3.37-4.91,6.41-5.04l4.14-.17v-.37c0-1.74-1.23-2.64-3.37-2.64s-4.21.93-5.04,1.47l-1.4-3.47c1.4-.7,3.97-1.67,7.04-1.67,5.14,0,8.11,2.14,8.11,7.48v9.28h-5.11ZM108.32,28.71c-1.64.07-2.6.77-2.6,2s1.03,2.04,2.5,2.04,2.4-.93,2.74-1.5v-2.7l-2.64.17Z"/>
    <path class="cls-2" d="M130.39,24.23h-.23c-.3-.17-1-.4-1.94-.4-2.64,0-3.3,2.47-3.3,4.64v7.31h-5.34v-16.45h5.34l-.03,2.34h.07c.93-1.8,2.3-2.64,4.07-2.64,1.1,0,1.67.3,1.67.3l-.3,4.91Z"/>
    <path class="cls-2" d="M138.66,23.4v5.91c0,1.43.1,2.44,1.74,2.44.83,0,1.6-.3,1.6-.3l.27,4.17c-.4.1-1.87.53-3.8.53-4.27,0-5.17-2.6-5.17-6.38v-6.38h-2.34v-4.04h2.34v-4.47h5.37v4.47h3.64v4.04h-3.64Z"/>
  </g>
  <path class="cls-4" d="M10.58,23.92c.53,1.08,1.06,2.32,1.6,3.45-1.24.31,13.87,8.11,12.53,8.11-8.99,0-16.27-7.29-16.27-16.27S15.72,2.95,24.71,2.95c1.91,0,3.75.33,5.46.94-4.91.84-8.97,4.7-9.72,9.93-.59,4.05-15.41-.86-13.76,2.4,1.22,2.44,2.61,5.1,3.89,7.69Z"/>
  <g>
    <path class="cls-2" d="M18.93,14.58c-.66,4.46,1.1,7.47,2.91,11.07,1.35,2.68,2.88,5.62,4.29,8.48.58,1.17,1.15,2.5,1.73,3.73.01.02.02.05.03.07-1.36.34-2.8.52-4.27.52-9.91,0-17.93-8.03-17.93-17.93S13.71,2.6,23.62,2.6c2.11,0,4.14.36,6.02,1.04-.1.02-.21.04-.31.07-5.27,1.02-9.59,5.21-10.4,10.87Z"/>
    <path d="M36.58,20.54c-2.93,3.35-8.17,2.55-10.1-1.23-3.36-6.58,5.55-12.42,10.3-6.62,1.82,2.23,1.67,5.71-.2,7.85Z"/>
    <path class="cls-2" d="M40.63,26.16c-1.41,4.27-4.38,7.83-8.24,10-.25.14-.5.27-.76.39-.03.02-.06.04-.09.05h0c.57-1.6,1.13-3.19,1.81-4.73.29-.68.87-2.09,1.38-2.57.22-.2,1.92-.67,2.4-.88,1.25-.54,2.45-1.32,3.5-2.26Z"/>
    <circle class="cls-2" cx="30.09" cy="41.42" r="1.45"/>
  </g>
  <path class="cls-1" d="M34.69,3.74c-1.72-.36-3.43-.39-5.05-.1,6.94,2.47,11.9,9.09,11.9,16.88,0,1.97-.32,3.87-.91,5.64.83-.74,1.57-1.57,2.16-2.46,5.04-7.62.78-18.06-8.11-19.96Z"/>
  <path class="cls-2" d="M158.04,39.55c-1.6,1.5-3.8,2.6-7.58,2.6s-6.84-1.6-7.98-2.44l2.2-3.57c.97.73,3.47,1.87,5.67,1.87,3.17,0,4.87-1.34,4.87-4.57v-.53h-.07c-1,1.3-2.6,2.34-5.17,2.34-4.04,0-7.78-2.8-7.78-8.11s3.74-8.11,7.78-8.11c2.77,0,4.34,1.27,5.21,2.4h.07l-.07-2.1h5.34v13.12c0,3.54-.9,5.61-2.5,7.11ZM151.54,23.2c-2.37,0-3.87,1.74-3.87,3.97s1.5,4.01,3.87,4.01,3.84-1.74,3.84-4.01-1.47-3.97-3.84-3.97Z"/>
  <path class="cls-2" d="M174.77,36.15c-2.44,0-4.17-.9-5.21-2.44v8.11h-5.34v-22.5h5.07l-.03,2.1h.07c1.2-1.43,2.97-2.4,5.47-2.4,4.74,0,7.74,3.7,7.74,8.54s-3,8.58-7.78,8.58ZM173.23,23.23c-2.27,0-3.84,1.74-3.84,4.27s1.57,4.27,3.84,4.27,3.87-1.74,3.87-4.27-1.57-4.27-3.87-4.27Z"/>
  <path class="cls-2" d="M190.69,36.15c-2.47,0-5.07-.77-6.94-2.54l2-3.17c1.34,1.13,3.54,2,4.87,2s2.27-.33,2.27-1.4-2.4-1.6-3-1.8c-2.74-.7-5.14-1.67-5.14-5.07,0-3.2,2.8-5.17,6.24-5.17s5.37,1.27,6.31,2.04l-1.74,3.14c-.93-.73-2.8-1.6-4.14-1.6s-1.97.33-1.97,1.2,1.27,1.27,2.4,1.6c2.84.83,5.81,1.7,5.81,5.34,0,3.94-3.57,5.44-6.98,5.44Z"/>
  <circle class="cls-4" cx="140.52" cy="29.7" r="1.17"/>
  <path class="cls-3" d="M36.78,12.69c1.82,2.23,1.67,5.71-.2,7.85-2.93,3.35-8.17,2.55-10.1-1.23-3.36-6.58,5.55-12.42,10.3-6.62Z"/>
</svg>