<?xml version="1.0" encoding="UTF-8"?>
<svg id="Layer_1" data-name="Layer 1" xmlns="http://www.w3.org/2000/svg" viewBox="0 0 88.18 25.43">
  <defs>
    <style>
      .cls-1 {
        fill: #fff;
      }
    </style>
  </defs>
  <path class="cls-1" d="M66.4,11.51h-3.52c-.12-1.28-.47-2.5-1.1-3.68-.04-.1-.12-.22-.17-.32,0,0,0-.03-.03-.03-.04-.09-.12-.2-.17-.29-1.08-1.8-2.45-3.12-4.1-4.01-.03,0-.03-.03-.05-.03-1.2-.64-2.58-1.03-4.07-1.15-.26-.02-.54-.04-.81-.04-1.49-.03-2.95,0-4.41,0h-17.58v2.45h22.12c.2,0,.39,0,.59.03.05,0,.09,0,.17.03h.05c2.06.26,3.8,1.17,5.15,2.72.05.04.1.09.13.15.04.05.09.12.15.17.03.04.08.07.09.12.79,1.01,1.3,2.11,1.55,3.29,0,.03.03.07.03.09,0,.05.03.1.03.13,0,.05.03.12.03.17s.03.12.03.17c-.74,0-1.52,0-2.33-.03-.42-2.06-1.94-3.81-3.81-4.44-.78-.26-1.57-.37-2.38-.37-2.99-.03-5.99,0-9,0-.56,0-.59.03-.59.59v5.96q0,.62.64.62c1.64,0,7.36.05,12.59.08-.03.04-.03.09-.05.12-.61,1.38-1.73,2.08-3.21,2.08-3.12.03-6.24,0-9.35,0-.76,0-.56,0-.61,1.14-.07,1.64-.04,3.26,0,4.9.03,1.14-.12,1.14.61,1.14h9.17c.72,0,1.45-.05,2.14-.2,2.66-.55,4.79-1.9,6.43-4.03,1.19-1.52,1.91-3.25,2.14-5.15h3.54c-.03-.4-.05-.79-.05-1.2,0-.37.03-.79.05-1.18ZM47.03,11.39h-1.86c-.42,0-.39-.05-.39-.64v-1.22c0-.38.05-.4.47-.4,2.43,0,4.85-.02,7.29,0,1.38,0,2.65.97,3.14,2.31-3.98-.03-7.86-.04-8.64-.04ZM52.28,20.84c-2.23-.04-4.47,0-6.7,0h-.5c-.2,0-.34-.17-.34-.34v-1.33q0-.56.54-.56h7.12c.17,0,.35,0,.52-.03,2.62-.26,4.64-2.25,5.18-4.64.81,0,1.59,0,2.33.03-.67,4.01-4.34,6.95-8.15,6.88Z"/>
  <path class="cls-1" d="M14.31,1.89h4.36v21.47h-3.92l-7.83-13.54v13.54H2.56V1.87h4.04l7.71,13.28V1.89Z"/>
  <path class="cls-1" d="M64.6,12.63c0-5.91,4.64-10.76,10.55-10.76s10.58,4.85,10.58,10.76-4.7,10.73-10.58,10.73-10.55-4.85-10.55-10.73ZM81.51,12.63c0-3.74-2.65-6.81-6.36-6.81s-6.36,3.07-6.36,6.81,2.62,6.78,6.36,6.78,6.36-3.04,6.36-6.78Z"/>
  <path class="cls-1" d="M20.19,12.63c0-5.89,4.62-10.72,10.51-10.72s10.54,4.84,10.54,10.72-4.69,10.69-10.54,10.69-10.51-4.84-10.51-10.69ZM37.04,12.63c0-3.72-2.64-6.79-6.34-6.79s-6.34,3.06-6.34,6.79,2.61,6.76,6.34,6.76,6.34-3.03,6.34-6.76Z"/>
</svg>