<?xml version="1.0" encoding="UTF-8"?>
<svg id="Layer_1" data-name="Layer 1" xmlns="http://www.w3.org/2000/svg" viewBox="0 0 209.39 25.43">
  <defs>
    <style>
      .cls-1 {
        stroke: #000;
        stroke-miterlimit: 10;
        stroke-width: .5px;
      }

      .cls-2 {
        opacity: .7;
        stroke: rgba(0, 0, 0, .7);
        stroke-linecap: round;
        stroke-linejoin: round;
      }
    </style>
  </defs>
  <line class="cls-2" x1="95.44" y1="3.16" x2="95.44" y2="22.08"/>
  <g>
    <path d="M112.67,21.37l-4.25-6.11h-2.09v6.11h-2.14V5.18h6.09c3.53,0,4.89,2.54,4.89,5.05,0,2.35-1.34,4.84-4.23,5.05l4.3,6.09h-2.56ZM106.32,7.15v6.16h3.38c2.37,0,3.31-1.25,3.31-3.08s-1.06-3.08-2.7-3.08h-3.99Z"/>
    <path d="M118.52,15.84V5.18h2.14v10.67c0,2.56,1.74,3.76,3.76,3.76s3.76-1.2,3.76-3.76V5.18h2.14v10.67c0,3.69-2.7,5.8-5.9,5.8s-5.9-2.12-5.9-5.8Z"/>
    <path d="M144.85,5.18v1.97h-4.93v14.22h-2.14V7.15h-4.93v-1.97h12.01Z"/>
    <path d="M149.69,19.39h7.66v1.97h-9.78V5.18h9.54v1.97h-7.42v5.26h6.49v2h-6.49v4.98Z"/>
    <path d="M170.96,21.37l-1.57-4.16h-6.96l-1.57,4.16h-2.23l6.16-16.19h2.26l6.16,16.19h-2.23ZM163.13,15.33h5.55l-2.77-7.35-2.77,7.35Z"/>
    <path d="M193.94,21.37h-2.09l-1.5-12.34-5.15,10.57h-1.86l-5.19-10.57-1.48,12.34h-2.09l1.97-16.19h1.93l5.78,12.01,5.76-12.01h1.93l2,16.19Z"/>
    <path d="M199.62,19.39h7.66v1.97h-9.78V5.18h9.54v1.97h-7.42v5.26h6.49v2h-6.49v4.98Z"/>
  </g>
  <g>
    <path class="cls-1" d="M67.06,11.51h-3.52c-.12-1.28-.47-2.5-1.1-3.68-.04-.1-.12-.22-.17-.32,0,0,0-.03-.03-.03-.04-.09-.12-.2-.17-.29-1.08-1.8-2.45-3.12-4.1-4.01-.03,0-.03-.03-.05-.03-1.2-.64-2.58-1.03-4.07-1.15-.26-.02-.54-.04-.81-.04-1.49-.03-2.95,0-4.41,0h-17.58v2.45h22.12c.2,0,.39,0,.59.03.05,0,.09,0,.17.03h.05c2.06.26,3.8,1.17,5.15,2.72.05.04.1.09.13.15.04.05.09.12.15.17.03.04.08.07.09.12.79,1.01,1.3,2.11,1.55,3.29,0,.03.03.07.03.09,0,.05.03.1.03.13,0,.05.03.12.03.17s.03.12.03.17c-.74,0-1.52,0-2.33-.03-.42-2.06-1.94-3.81-3.81-4.44-.78-.26-1.57-.37-2.38-.37-2.99-.03-5.99,0-9,0-.56,0-.59.03-.59.59v5.96q0,.62.64.62c1.64,0,7.36.05,12.59.08-.03.04-.03.09-.05.12-.61,1.38-1.73,2.08-3.21,2.08-3.12.03-6.24,0-9.35,0-.76,0-.56,0-.61,1.14-.07,1.64-.04,3.26,0,4.9.03,1.14-.12,1.14.61,1.14h9.17c.72,0,1.45-.05,2.14-.2,2.66-.55,4.79-1.9,6.43-4.03,1.19-1.52,1.91-3.25,2.14-5.15h3.54c-.03-.4-.05-.79-.05-1.2,0-.37.03-.79.05-1.18ZM47.69,11.39h-1.86c-.42,0-.39-.05-.39-.64v-1.22c0-.38.05-.4.47-.4,2.43,0,4.85-.02,7.29,0,1.38,0,2.65.97,3.14,2.31-3.98-.03-7.86-.04-8.64-.04ZM52.94,20.84c-2.23-.04-4.47,0-6.7,0h-.5c-.2,0-.34-.17-.34-.34v-1.33q0-.56.54-.56h7.12c.17,0,.35,0,.52-.03,2.62-.26,4.64-2.25,5.18-4.64.81,0,1.59,0,2.33.03-.67,4.01-4.34,6.95-8.15,6.88Z"/>
    <path d="M14.97,1.89h4.36v21.47h-3.92l-7.83-13.54v13.54H3.22V1.87h4.04l7.71,13.28V1.89Z"/>
    <path d="M65.26,12.63c0-5.91,4.64-10.76,10.55-10.76s10.58,4.85,10.58,10.76-4.7,10.73-10.58,10.73-10.55-4.85-10.55-10.73ZM82.17,12.63c0-3.74-2.65-6.81-6.36-6.81s-6.36,3.07-6.36,6.81,2.62,6.78,6.36,6.78,6.36-3.04,6.36-6.78Z"/>
    <path d="M20.75,12.54c0-5.94,4.67-10.82,10.61-10.82s10.64,4.88,10.64,10.82-4.73,10.79-10.64,10.79-10.61-4.88-10.61-10.79ZM37.75,12.54c0-3.76-2.67-6.85-6.39-6.85s-6.39,3.09-6.39,6.85,2.64,6.82,6.39,6.82,6.39-3.06,6.39-6.82Z"/>
  </g>
</svg>